<svg id="Layer_1" data-name="Layer 1" xmlns="http://www.w3.org/2000/svg" xmlns:xlink="http://www.w3.org/1999/xlink" preserveAspectRatio="none" viewBox="0 0 194.6 178.7">
  <defs>
    <style>
      .cls-1, .cls-3, .cls-4 {
        fill: none;
      }

      .cls-2 {
        fill: #d1d3d4;
      }

      .cls-3, .cls-4 {
        stroke: #a7a9ac;
        stroke-linecap: round;
        stroke-linejoin: round;
      }

      .cls-3 {
        stroke-width: 0.5px;
      }

      .cls-4 {
        stroke-width: 0.75px;
      }

      .cls-5 {
        clip-path: url(#clip-path);
      }

      .cls-6 {
        fill: #58595b;
      }
    </style>
    <clipPath id="clip-path">
      <rect class="cls-1" width="194.6" height="178.66"/>
    </clipPath>
  </defs>
  <title>832360e7-f926-4581-87ed-7d6197ef8c30</title>
  <rect class="cls-2" x="8.6" y="79.9" width="11" height="28.15"/>
  <path class="cls-2" d="M9.8,112.3h8.6m-8.6,0,1.9-1.8m-1.9,1.8,1.9,1.8m6.7-1.8-1.9-1.8m1.9,1.8-1.9,1.8"/>
  <path class="cls-3" d="M9.8,112.3h8.6m-8.6,0,1.9-1.8m-1.9,1.8,1.9,1.8m6.7-1.8-1.9-1.8m1.9,1.8-1.9,1.8"/>
  <rect class="cls-2" x="168.8" y="79.9" width="19.6" height="28.15"/>
  <path class="cls-2" d="M170,114.1h17.1m-17.1,0,3.8-3.7m-3.8,3.7,3.8,3.7m13.3-3.7-3.8-3.7m3.8,3.7-3.8,3.7"/>
  <path class="cls-4" d="M170,114.1h17.1m-17.1,0,3.8-3.7m-3.8,3.7,3.8,3.7m13.3-3.7-3.8-3.7m3.8,3.7-3.8,3.7"/>
  <g class="cls-5">
    <path class="cls-6" d="M5.2,178.5a2.9,2.9,0,0,1-.2-.9,3.1,3.1,0,0,1-2.3,1,2.9,2.9,0,0,1-2-.7,2.2,2.2,0,0,1-.8-1.7,2.3,2.3,0,0,1,1-2,4.5,4.5,0,0,1,2.7-.7H5V173a1.5,1.5,0,0,0-.4-1.1,1.7,1.7,0,0,0-1.3-.4,2,2,0,0,0-1.2.4,1.1,1.1,0,0,0-.5.9H.2a1.9,1.9,0,0,1,.4-1.2,3,3,0,0,1,1.2-.9,3.9,3.9,0,0,1,1.6-.3,3.2,3.2,0,0,1,2.2.7,2.5,2.5,0,0,1,.8,1.9v3.7a4.6,4.6,0,0,0,.3,1.8H5.2Zm-2.3-1.1a2.4,2.4,0,0,0,1.2-.3,2,2,0,0,0,.8-.9v-1.7H3.9q-2.5,0-2.5,1.5a1.3,1.3,0,0,0,.4,1,1.7,1.7,0,0,0,1.1.4m9.1,1.1a2.9,2.9,0,0,1-.2-.9,3.1,3.1,0,0,1-2.3,1,2.9,2.9,0,0,1-2-.7,2.2,2.2,0,0,1-.8-1.7,2.3,2.3,0,0,1,1-2,4.5,4.5,0,0,1,2.7-.7h1.3V173a1.5,1.5,0,0,0-.4-1.1,1.7,1.7,0,0,0-1.3-.4,2,2,0,0,0-1.2.4,1.1,1.1,0,0,0-.5.9H6.9a1.9,1.9,0,0,1,.4-1.2,2.9,2.9,0,0,1,1.2-.9,3.9,3.9,0,0,1,1.6-.3,3.2,3.2,0,0,1,2.2.7,2.5,2.5,0,0,1,.8,1.9v3.7a4.5,4.5,0,0,0,.3,1.8H12Zm-2.3-1.1a2.4,2.4,0,0,0,1.2-.3,2,2,0,0,0,.8-.9v-1.7H10.7q-2.5,0-2.5,1.5a1.3,1.3,0,0,0,.4,1,1.7,1.7,0,0,0,1.1.4m9.1,1.1a2.9,2.9,0,0,1-.2-.9,3.1,3.1,0,0,1-2.3,1,2.9,2.9,0,0,1-2-.7,2.2,2.2,0,0,1-.8-1.7,2.3,2.3,0,0,1,1-2,4.5,4.5,0,0,1,2.7-.7h1.3V173a1.5,1.5,0,0,0-.4-1.1,1.7,1.7,0,0,0-1.3-.4,2,2,0,0,0-1.2.4,1.1,1.1,0,0,0-.5.9H13.7a1.9,1.9,0,0,1,.4-1.2,2.9,2.9,0,0,1,1.2-.9,3.9,3.9,0,0,1,1.6-.3,3.2,3.2,0,0,1,2.2.7,2.5,2.5,0,0,1,.8,1.9v3.7a4.5,4.5,0,0,0,.3,1.8H18.8Zm-2.3-1.1a2.4,2.4,0,0,0,1.2-.3,2,2,0,0,0,.8-.9v-1.7H17.5q-2.5,0-2.5,1.5a1.3,1.3,0,0,0,.4,1,1.7,1.7,0,0,0,1.1.4"/>
    <path class="cls-6" d="M173.5,178.5a2.9,2.9,0,0,1-.2-.9,3.1,3.1,0,0,1-2.3,1,2.9,2.9,0,0,1-2-.7,2.2,2.2,0,0,1-.8-1.7,2.3,2.3,0,0,1,1-2,4.5,4.5,0,0,1,2.7-.7h1.3V173a1.5,1.5,0,0,0-.4-1.1,1.7,1.7,0,0,0-1.3-.4,2,2,0,0,0-1.2.4,1.1,1.1,0,0,0-.5.9h-1.4a1.9,1.9,0,0,1,.4-1.2,2.9,2.9,0,0,1,1.2-.9,3.9,3.9,0,0,1,1.6-.3,3.2,3.2,0,0,1,2.2.7,2.5,2.5,0,0,1,.8,1.9v3.7a4.5,4.5,0,0,0,.3,1.8h-1.4Zm-2.3-1.1a2.4,2.4,0,0,0,1.2-.3,2,2,0,0,0,.8-.9v-1.7h-1.1q-2.5,0-2.5,1.5a1.3,1.3,0,0,0,.4,1,1.7,1.7,0,0,0,1.1.4m12.1,1.1a2.9,2.9,0,0,1-.2-.9,3.1,3.1,0,0,1-2.3,1,2.9,2.9,0,0,1-2-.7,2.2,2.2,0,0,1-.8-1.7,2.3,2.3,0,0,1,1-2,4.5,4.5,0,0,1,2.7-.7h1.3V173a1.5,1.5,0,0,0-.4-1.1,1.7,1.7,0,0,0-1.3-.4,2,2,0,0,0-1.2.4,1.1,1.1,0,0,0-.5.9h-1.4a1.9,1.9,0,0,1,.4-1.2,2.9,2.9,0,0,1,1.2-.9,3.9,3.9,0,0,1,1.6-.3,3.2,3.2,0,0,1,2.2.7,2.5,2.5,0,0,1,.8,1.9v3.7a4.5,4.5,0,0,0,.3,1.8h-1.4Zm-2.3-1.1a2.4,2.4,0,0,0,1.2-.3,2,2,0,0,0,.8-.9v-1.7H182q-2.5,0-2.5,1.5a1.3,1.3,0,0,0,.4,1,1.7,1.7,0,0,0,1.1.4m12.1,1.1a2.9,2.9,0,0,1-.2-.9,3.1,3.1,0,0,1-2.3,1,2.9,2.9,0,0,1-2-.7,2.2,2.2,0,0,1-.8-1.7,2.3,2.3,0,0,1,1-2,4.5,4.5,0,0,1,2.7-.7h1.3V173a1.5,1.5,0,0,0-.4-1.1,1.7,1.7,0,0,0-1.3-.4,2,2,0,0,0-1.2.4,1.1,1.1,0,0,0-.5.9h-1.4a1.9,1.9,0,0,1,.4-1.2,2.9,2.9,0,0,1,1.2-.9,3.9,3.9,0,0,1,1.6-.3,3.2,3.2,0,0,1,2.2.7,2.5,2.5,0,0,1,.8,1.9v3.7a4.5,4.5,0,0,0,.3,1.8h-1.4Zm-2.3-1.1a2.4,2.4,0,0,0,1.2-.3,2,2,0,0,0,.8-.9v-1.7h-1.1q-2.5,0-2.5,1.5a1.3,1.3,0,0,0,.4,1,1.7,1.7,0,0,0,1.1.4"/>
    <path class="cls-6" d="M16.4,15.2H10.6L9.3,18.8H7.4L12.7,5.1h1.6l5.3,13.7H17.8Zm-5.3-1.5h4.7L13.5,7.4Z"/>
    <path class="cls-6" d="M182.2,15.8h-9.2L171,21.4h-3L176.4,0h2.5l8.4,21.4h-3Zm-8.3-2.3h7.4l-3.7-10Z"/>
  </g>
</svg>
