<svg xmlns="http://www.w3.org/2000/svg" viewBox="0 0 20.22 8.37"><defs><style>.cls-1{fill:#58595b;}</style></defs><g id="Layer_2" data-name="Layer 2"><g id="Layer_1-2" data-name="Layer 1"><path class="cls-1" d="M5.21,8.22A3,3,0,0,1,5,7.37a3.11,3.11,0,0,1-2.3,1,2.87,2.87,0,0,1-2-.68A2.18,2.18,0,0,1,0,6,2.28,2.28,0,0,1,1,4a4.54,4.54,0,0,1,2.7-.7H5V2.69a1.55,1.55,0,0,0-.44-1.15,1.71,1.71,0,0,0-1.27-.43,2,2,0,0,0-1.24.37,1.11,1.11,0,0,0-.5.91H.16A1.94,1.94,0,0,1,.59,1.22,3.08,3.08,0,0,1,1.75.33,3.91,3.91,0,0,1,3.37,0,3.18,3.18,0,0,1,5.56.7a2.56,2.56,0,0,1,.82,1.92V6.33A4.55,4.55,0,0,0,6.66,8.1v.12ZM2.92,7.17a2.42,2.42,0,0,0,1.23-.34A2,2,0,0,0,5,6V4.3H3.91c-1.69,0-2.53.5-2.53,1.49a1.24,1.24,0,0,0,.43,1A1.69,1.69,0,0,0,2.92,7.17ZM12,8.22a3,3,0,0,1-.19-.85,3.11,3.11,0,0,1-2.3,1,2.87,2.87,0,0,1-2-.68A2.18,2.18,0,0,1,6.78,6,2.28,2.28,0,0,1,7.73,4a4.51,4.51,0,0,1,2.7-.7h1.35V2.69a1.55,1.55,0,0,0-.44-1.15,1.71,1.71,0,0,0-1.27-.43,2,2,0,0,0-1.24.37,1.11,1.11,0,0,0-.5.91H6.94a1.94,1.94,0,0,1,.43-1.17A3,3,0,0,1,8.53.33,3.91,3.91,0,0,1,10.15,0a3.14,3.14,0,0,1,2.18.7,2.46,2.46,0,0,1,.82,1.92V6.33a4.53,4.53,0,0,0,.29,1.77v.12ZM9.7,7.17a2.48,2.48,0,0,0,1.23-.34A2,2,0,0,0,11.78,6V4.3H10.69C9,4.3,8.16,4.8,8.16,5.79a1.24,1.24,0,0,0,.43,1A1.69,1.69,0,0,0,9.7,7.17Zm9.07,1.05a3,3,0,0,1-.19-.85,3.11,3.11,0,0,1-2.3,1,2.85,2.85,0,0,1-2-.68A2.18,2.18,0,0,1,13.56,6,2.28,2.28,0,0,1,14.51,4a4.49,4.49,0,0,1,2.7-.7h1.35V2.69a1.55,1.55,0,0,0-.44-1.15,1.71,1.71,0,0,0-1.27-.43,2,2,0,0,0-1.24.37,1.11,1.11,0,0,0-.5.91H13.72a1.88,1.88,0,0,1,.43-1.17A3,3,0,0,1,15.31.33,3.91,3.91,0,0,1,16.93,0a3.14,3.14,0,0,1,2.18.7,2.49,2.49,0,0,1,.82,1.92V6.33a4.53,4.53,0,0,0,.29,1.77v.12ZM16.48,7.17a2.48,2.48,0,0,0,1.23-.34A2,2,0,0,0,18.56,6V4.3H17.47c-1.69,0-2.53.5-2.53,1.49a1.24,1.24,0,0,0,.43,1A1.69,1.69,0,0,0,16.48,7.17Z"/></g></g></svg>