<svg width="65" height="63" viewBox="0 0 65 63" fill="none" xmlns="http://www.w3.org/2000/svg">
<path d="M65 63H38.7244V59.8916C41.0363 59.7457 42.948 59.4538 44.4596 59.016C46.0009 58.5782 46.7715 58.0382 46.7715 57.3961C46.7715 57.1334 46.7419 56.8124 46.6826 56.4329C46.6233 56.0535 46.5344 55.7179 46.4159 55.426L41.1696 41.5038H19.0732C18.2433 43.5469 17.5616 45.3273 17.028 46.845C16.5242 48.3628 16.0648 49.7637 15.6498 51.048C15.2645 52.303 14.9977 53.3245 14.8495 54.1126C14.7013 54.9006 14.6272 55.5427 14.6272 56.0389C14.6272 57.2064 15.5609 58.1112 17.4282 58.7533C19.2955 59.3954 21.3999 59.7748 23.7415 59.8916V63H0V59.8916C0.770634 59.8332 1.73393 59.6727 2.88988 59.41C4.04583 59.1181 4.9943 58.7387 5.73529 58.2717C6.92088 57.4837 7.83972 56.6664 8.49179 55.82C9.14387 54.9444 9.78112 53.7477 10.4036 52.23C13.575 44.4371 17.0725 35.681 20.896 25.9618C24.7196 16.2425 28.1281 7.5886 31.1218 0H34.6785L55.7079 53.5872C56.1525 54.7255 56.6564 55.6449 57.2196 56.3454C57.7827 57.0459 58.5682 57.7318 59.5759 58.4031C60.2576 58.8117 61.1468 59.1619 62.2435 59.4538C63.3402 59.7165 64.259 59.8624 65 59.8916V63ZM39.5691 37.6074L30.0103 13.5281L20.6293 37.6074H39.5691Z" fill="black"/>
</svg>
