<svg xmlns="http://www.w3.org/2000/svg" viewBox="0 0 26.33 8.37"><defs><style>.cls-1{fill:#58595b;}</style></defs><g id="Layer_2" data-name="Layer 2"><g id="Layer_1-2" data-name="Layer 1"><path class="cls-1" d="M5.21,8.22A2.91,2.91,0,0,1,5,7.37a3.11,3.11,0,0,1-2.3,1,2.91,2.91,0,0,1-2-.67A2.21,2.21,0,0,1,0,6,2.28,2.28,0,0,1,1,4a4.54,4.54,0,0,1,2.7-.7H5V2.69a1.55,1.55,0,0,0-.44-1.15,1.76,1.76,0,0,0-1.27-.43,2.07,2.07,0,0,0-1.24.37,1.11,1.11,0,0,0-.5.91H.16A1.94,1.94,0,0,1,.59,1.22,3.08,3.08,0,0,1,1.75.33,3.91,3.91,0,0,1,3.37,0,3.18,3.18,0,0,1,5.56.7a2.56,2.56,0,0,1,.82,1.92V6.33A4.55,4.55,0,0,0,6.66,8.1v.12ZM2.92,7.17a2.42,2.42,0,0,0,1.23-.34A2,2,0,0,0,5,6V4.3H3.91c-1.69,0-2.53.5-2.53,1.49a1.24,1.24,0,0,0,.43,1A1.69,1.69,0,0,0,2.92,7.17ZM15.05,8.22a2.84,2.84,0,0,1-.2-.85,3.09,3.09,0,0,1-2.3,1,2.93,2.93,0,0,1-2-.67A2.25,2.25,0,0,1,9.83,6a2.26,2.26,0,0,1,1-1.95,4.49,4.49,0,0,1,2.7-.7h1.34V2.69a1.55,1.55,0,0,0-.43-1.15,1.78,1.78,0,0,0-1.28-.43,2.09,2.09,0,0,0-1.24.37,1.11,1.11,0,0,0-.5.91H10a1.93,1.93,0,0,1,.42-1.17A3,3,0,0,1,11.59.33,3.9,3.9,0,0,1,13.2,0a3.18,3.18,0,0,1,2.19.7,2.49,2.49,0,0,1,.82,1.92V6.33a4.55,4.55,0,0,0,.28,1.77v.12ZM12.76,7.17A2.48,2.48,0,0,0,14,6.83,2,2,0,0,0,14.83,6V4.3H13.75c-1.69,0-2.54.5-2.54,1.49a1.25,1.25,0,0,0,.44,1A1.65,1.65,0,0,0,12.76,7.17ZM24.88,8.22a2.91,2.91,0,0,1-.19-.85,3.12,3.12,0,0,1-2.3,1,2.89,2.89,0,0,1-2-.67A2.21,2.21,0,0,1,19.67,6,2.28,2.28,0,0,1,20.62,4a4.49,4.49,0,0,1,2.7-.7h1.34V2.69a1.55,1.55,0,0,0-.43-1.15A1.76,1.76,0,0,0,23,1.11a2.05,2.05,0,0,0-1.24.37,1.09,1.09,0,0,0-.5.91H19.83a1.88,1.88,0,0,1,.43-1.17A3,3,0,0,1,21.42.33,3.91,3.91,0,0,1,23,0a3.14,3.14,0,0,1,2.18.7A2.49,2.49,0,0,1,26,2.62V6.33a4.53,4.53,0,0,0,.29,1.77v.12ZM22.59,7.17a2.48,2.48,0,0,0,1.23-.34A2,2,0,0,0,24.66,6V4.3H23.58c-1.69,0-2.53.5-2.53,1.49a1.24,1.24,0,0,0,.43,1A1.69,1.69,0,0,0,22.59,7.17Z"/></g></g></svg>